<svg xmlns="http://www.w3.org/2000/svg" width="302" height="89.777" viewBox="0 0 302 89.777"><g transform="translate(-125.15 -149.011)"><rect width="86.055" height="84.829" transform="translate(126.625 151.668)" fill="#fff"/><rect width="212.571" height="84.828" transform="translate(212.055 151.532)" fill="#fff"/><g transform="translate(224.814 169.278)"><path d="M260.681,205.282c-10.4,0-17.007-5.709-17.007-15.711,0-10.618,6.44-15.99,17.177-15.99a23.977,23.977,0,0,1,9.774,1.809l-1.974,5.255a23.03,23.03,0,0,0-7.86-1.245c-5.594,0-9.947,2.659-9.947,9.719,0,7.292,4.808,10.231,10.517,10.231.9,0,1.805-.059,2.486-.113V189.206h7.009v14.379a28.089,28.089,0,0,1-10.176,1.7" transform="translate(-243.674 -173.187)" fill="#818386"/><path d="M353.619,204.84V188.509l.285-4.695-9.041,21.025h-8.079l-8.42-21.025.51,4.354V204.84h-6.78V173.983h8.983l9.887,24.468,10.909-24.468h8.53V204.84Z" transform="translate(-256.153 -173.251)" fill="#818386"/><path d="M408.052,204.84V188.509l.283-4.695L399.3,204.84h-8.084L382.8,183.815l.511,4.354V204.84h-6.782V173.983h8.984l9.884,24.468L406.3,173.983h8.535V204.84Z" transform="translate(-264.814 -173.251)" fill="#818386"/><path d="M293.453,199.275c-2.317,0-3.732-1.024-3.732-3.561,0-1.979.79-3.616,5.879-3.843l5.706-.283v5.479c-1.243.34-5.425,2.208-7.853,2.208m2.653-26.162a31.932,31.932,0,0,0-11.351,2.2l1.464,5.541a37.358,37.358,0,0,1,8.59-1.416c4.461,0,6.5.563,6.5,4.236v3.279c-1.018,0-6.161.059-6.161.059-5.647.055-12.653,1.466-12.653,9.148,0,5.993,3.616,8.99,9.828,8.99a15.03,15.03,0,0,0,8.986-3.261v2.81h7.217l.016-22.66c0-7.97-5.985-8.928-12.433-8.928" transform="translate(-249.851 -173.113)" fill="#818386"/><path d="M439.2,199.275c-2.319,0-3.736-1.024-3.736-3.561,0-1.979.79-3.616,5.875-3.843l5.71-.283v5.479c-1.245.34-5.426,2.208-7.85,2.208m2.654-26.162a31.952,31.952,0,0,0-11.357,2.2l1.462,5.541a37.342,37.342,0,0,1,8.595-1.416c4.462,0,6.5.563,6.5,4.236v3.279c-1.014,0-6.161.059-6.161.059-5.648.055-12.655,1.466-12.655,9.148,0,5.993,3.617,8.99,9.834,8.99a15.033,15.033,0,0,0,8.982-3.261v2.81h7.217l.015-22.66c0-7.97-5.993-8.928-12.428-8.928" transform="translate(-273.043 -173.113)" fill="#818386"/></g><path d="M422.111,233.844H215.02V154.052H422.111Zm-247.6,0H165.58c.225-5.345,8.548-5.007,8.933,0m-37.607-79.792c-.092,7.072,6.367,3.925,9.157,1.4-.053,1.195-.642,1.452-.994,2.606a8.164,8.164,0,0,0,.4,5.407c2.767-3.173,6.7-6.852,13.536-6.011a11.237,11.237,0,0,1,5.573,2.8c4.69,4.922.222,12.663-5.573,12.216-1.817-.144-2.862-1.1-2.794-2.206.135-1.983,3.474-1.741,3.59-3.8.107-1.966-2.179-3.154-4.381-2.808a6.756,6.756,0,0,0-4.773,10.014,9.672,9.672,0,0,0,7.365,4.6c4.067.519,5.066-1.186,8.951-2-.042,4.895-3.332,7.36-7.565,7.4.153,4.3,5.453,4.3,8.364,3.206-.33,1.6-1.254,1.985-1.2,3.2.181,3.681,6.616,4.059,6.969.2.132-1.46-.964-1.916-1.194-3.4,2.886,1.1,8.049,1.086,8.361-3.007-3.914-.452-7.634-2.506-7.562-7.6,3.558.923,5.469,2.355,8.759,2,4.369-.472,8.89-3.728,8.358-9.007-.365-3.581-4.145-6.636-7.761-5.611a3.268,3.268,0,0,0-2.193,2.808c.117,2.047,3.3,1.778,3.583,3.6.586,3.7-6.688,1.981-8.161.6-5-4.693-.335-12.453,5.176-13.218a14.136,14.136,0,0,1,13.533,6.011c2.134-2.217-.146-6.629-.594-8.013,2.766,2.062,9.217,6.073,9.357-1.4h6.786v5.209c-3.306-.244-2.826,3.116-1.959,5.208-2.087-1.017-6.62-1.348-6.371,2.6,2.924.6,6.227.808,5.581,5-4.063-.954-7.171-1.4-9.758.4-4.014,2.791-3.919,14.054,1.592,13.407,4.212-.489.306-4.149,2.585-7.8a2.813,2.813,0,0,1,2.988-.4c2.4,1.123,2.864,3.559,2.788,6.2-.182,6.718-9.57,10.48-15.132,5.409-1.908-1.743-3.689-4.341-3.78-7.006-2.833.69-4.33,4.371-2.589,8.008-8.61-3.638-6.384,10.882,0,7.409-1.273,3.329-.3,7.511,2.791,8.008.077-3.353,1.646-5.084,3.383-6.808,5.444-5.392,15.3-1.566,15.327,5.405a7.572,7.572,0,0,1-2.788,6.006c-1.361,1.214-2.419.157-2.988-.4-1.191-1.22,1.545-7.751-2.782-7.807-5.377-.068-5.358,10.666-1.195,13.415,2.565,1.694,5.461,1.445,9.558.4.642,4.124-2.555,4.38-5.377,5-.756,3.372,3.834,4.19,6.168,2.4-.744,2.224-1.475,5.609,1.959,5.405v5.109h-6.788c.025-6.926-6.378-3.813-9.152-1.305.051-1.19.642-1.453.995-2.6a8.2,8.2,0,0,0-.4-5.409c-2.767,3.175-6.707,6.846-13.533,6.006a11.107,11.107,0,0,1-5.572-2.8c-4.7-4.917-.227-12.662,5.572-12.211,1.815.14,2.861,1.1,2.784,2.2-.135,1.981-3.469,1.738-3.583,3.8-.111,1.959,2.176,3.158,4.378,2.805a6.749,6.749,0,0,0,4.776-10.006,9.651,9.651,0,0,0-7.367-4.607c-4.07-.52-5.066,1.19-8.954,2,.042-4.892,3.335-7.361,7.566-7.408-.153-4.3-5.454-4.306-8.365-3.2.331-1.6,1.259-1.994,1.194-3.2-.178-3.677-6.613-4.056-6.969-.2-.134,1.458.968,1.913,1.2,3.4-2.884-1.1-8.045-1.09-8.364,3,3.923.459,7.638,2.508,7.57,7.608-3.559-.927-5.471-2.354-8.759-2-4.37.473-8.892,3.727-8.357,9.012.364,3.58,4.138,6.628,7.762,5.6a3.247,3.247,0,0,0,2.187-2.805c-.116-2.048-3.29-1.782-3.584-3.6-.587-3.7,6.692-1.98,8.162-.6,5,4.693.336,12.447-5.177,13.21a14.126,14.126,0,0,1-13.532-6.006c-2.138,2.219.15,6.629.594,8.01-2.75-2.048-9.145-6.021-9.351,1.305h-6.72v-5.109c3.409.184,2.678-3.186,1.934-5.405,2.338,1.785,6.925.967,6.168-2.4-2.82-.625-6.012-.88-5.371-5,4.1,1.048,6.994,1.3,9.557-.4,4.161-2.749,4.178-13.483-1.194-13.415-4.332.055-1.59,6.587-2.789,7.807-.571.558-1.623,1.615-2.989.4a7.586,7.586,0,0,1-2.782-6.006c.032-6.971,9.887-10.8,15.327-5.405,1.743,1.724,3.3,3.454,3.388,6.808,3.088-.5,4.055-4.679,2.784-8.008,6.383,3.473,8.6-11.047,0-7.409,1.738-3.638.24-7.319-2.587-8.008-.093,2.666-1.868,5.263-3.786,7.006-5.559,5.07-14.949,1.308-15.127-5.409-.077-2.645.387-5.081,2.782-6.2a2.812,2.812,0,0,1,2.989.4c2.285,3.652-1.623,7.311,2.593,7.8,5.5.647,5.6-10.616,1.585-13.407-2.591-1.8-5.687-1.356-9.752-.4-.653-4.2,2.655-4.41,5.574-5,.256-3.949-4.288-3.617-6.371-2.6.868-2.085,1.345-5.43-1.934-5.208v-5.209Zm37.625,0c-.118,5.49-8.684,5.139-8.958,0Zm-49.38,84.736h302V149.011h-302Z" fill="#00b577"/><path d="M467.168,209.084h-.3v.783h.189c.436,0,.586-.166.586-.406,0-.268-.089-.377-.474-.377m1.758,2.576a1.7,1.7,0,0,1-1.279-.6s-.31-.342-.475-.532h-.305V211.6h-.927v-3.252h1.329c.748,0,1.316.341,1.316,1.094a.986.986,0,0,1-.478.853c.109.119.273.293.273.293a1.227,1.227,0,0,0,.716.372Z" transform="translate(-54.228 -9.442)" fill="#818386"/><path d="M466.747,205.564a3.959,3.959,0,1,0,3.937,3.961,3.947,3.947,0,0,0-3.937-3.961m0,.931a3.028,3.028,0,1,1-3.007,3.031,3.02,3.02,0,0,1,3.007-3.031" transform="translate(-53.732 -8.999)" fill="#818386"/><g transform="translate(274.075 208.589)"><path d="M310.493,232.472v-4.888h-4.709v4.888h-3.526V220.056h3.526V224.9h4.709v-4.846h3.524v12.416Z" transform="translate(-302.258 -219.895)" fill="#818386"/><path d="M326.421,222.64c-2.432,0-3.384,1.479-3.384,3.573s.952,3.661,3.248,3.661c2.527,0,3.437-1.5,3.437-3.638,0-2.116-1-3.6-3.3-3.6m-.18,10.015c-4.5,0-6.753-2.482-6.753-6.419,0-4.182,2.729-6.371,7.093-6.371,4.665,0,6.712,2.55,6.712,6.395,0,4.117-2.5,6.4-7.052,6.4" transform="translate(-305 -219.864)" fill="#818386"/><path d="M344.67,222.806v9.666h-3.526v-9.666h-3.891v-2.75h11.307v2.75Z" transform="translate(-307.826 -219.895)" fill="#818386"/><path d="M353.135,232.472V220.056h9.341v2.75h-5.818v2.138h5.435v2.618h-5.435v2.16h6.23v2.75Z" transform="translate(-310.354 -219.895)" fill="#818386"/><path d="M368.248,232.472V220.056h3.526v9.64h5.372v2.776Z" transform="translate(-312.759 -219.895)" fill="#818386"/><path d="M381.259,232.472V220.056h9.35v2.75h-5.821v2.138h5.432v2.618h-5.432v2.16h6.229v2.75Z" transform="translate(-314.829 -219.895)" fill="#818386"/><path d="M400.155,232.644a10.686,10.686,0,0,1-4.886-.77l.975-2.683a11.63,11.63,0,0,0,3.868.587c1.683,0,2.164-.429,2.164-.884,0-1.618-6.665-1-6.665-5.463,0-2.5,2.818-3.455,5.343-3.455a10.311,10.311,0,0,1,4.5.725l-.8,2.574a13.615,13.615,0,0,0-3.62-.48c-1.362,0-1.522.369-1.522.637,0,1.522,6.779,1.477,6.779,5.348,0,2.844-3.209,3.865-6.145,3.865" transform="translate(-317.058 -219.882)" fill="#818386"/></g></g></svg>